<?xml version="1.0" encoding="iso-8859-1"?>
<!-- Generator: Adobe Illustrator 19.1.0, SVG Export Plug-In . SVG Version: 6.00 Build 0)  -->
<svg xmlns="http://www.w3.org/2000/svg" xmlns:xlink="http://www.w3.org/1999/xlink" version="1.1" id="Capa_1" x="0px" y="0px" viewBox="0 0 64.001 64.001" style="enable-background:new 0 0 64.001 64.001;" xml:space="preserve" width="512px" height="512px">
<g>
	<g>
		<path d="M49.501,21.063c-1.541,0-3.06,0.246-4.508,0.723c0.944-1.948,1.445-4.097,1.445-6.285C46.438,7.54,39.961,1.063,32,1.063    S17.563,7.54,17.563,15.5c0,2.188,0.502,4.338,1.446,6.285c-1.449-0.477-2.969-0.723-4.509-0.723c-7.995,0-14.5,6.505-14.5,14.5    s6.505,14.5,14.5,14.5c5.602,0,11.503-2.51,14.498-6.833c-0.043,4.905-1.196,17.709-5.997,17.709v2h9h9v-2    c-4.796,0-5.953-12.803-5.998-17.708c2.995,4.323,8.896,6.833,14.498,6.833c7.995,0,14.5-6.505,14.5-14.5    S57.496,21.063,49.501,21.063z M49.501,48.063c-6.974,0-14.5-4.253-14.5-11.125h-2v6c0,1.624,0.142,13.261,4.083,18h-5.083h-5.083    c3.941-4.739,4.083-16.376,4.083-18v-6h-2c0,6.872-7.526,11.125-14.5,11.125c-6.893,0-12.5-5.607-12.5-12.5s5.607-12.5,12.5-12.5    c2.382,0,4.709,0.684,6.728,1.977l1.301-1.49c-1.913-2.248-2.967-5.106-2.967-8.049c0-6.858,5.58-12.438,12.438-12.438    s12.438,5.579,12.438,12.438c0,2.943-1.053,5.802-2.966,8.049l1.301,1.49c2.017-1.293,4.343-1.977,6.727-1.977    c6.893,0,12.5,5.607,12.5,12.5S56.394,48.063,49.501,48.063z" fill="#FFFFFF"/>
	</g>
</g>
<g>
</g>
<g>
</g>
<g>
</g>
<g>
</g>
<g>
</g>
<g>
</g>
<g>
</g>
<g>
</g>
<g>
</g>
<g>
</g>
<g>
</g>
<g>
</g>
<g>
</g>
<g>
</g>
<g>
</g>
</svg>
