<?xml version="1.0" encoding="UTF-8" standalone="no"?>
<svg
   xmlns:dc="http://purl.org/dc/elements/1.1/"
   xmlns:cc="http://creativecommons.org/ns#"
   xmlns:rdf="http://www.w3.org/1999/02/22-rdf-syntax-ns#"
   xmlns:svg="http://www.w3.org/2000/svg"
   xmlns="http://www.w3.org/2000/svg"
   xmlns:sodipodi="http://sodipodi.sourceforge.net/DTD/sodipodi-0.dtd"
   xmlns:inkscape="http://www.inkscape.org/namespaces/inkscape"
   version="1.1"
   id="Layer_1"
   x="0px"
   y="0px"
   viewBox="0 0 489.7 489.7"
   style="enable-background:new 0 0 489.7 489.7;"
   xml:space="preserve"
   width="512px"
   height="512px"
   class=""
   sodipodi:docname="teamwork.svg"
   inkscape:version="0.92.2 (5c3e80d, 2017-08-06)"><metadata
     id="metadata4257"><rdf:RDF><cc:Work
         rdf:about=""><dc:format>image/svg+xml</dc:format><dc:type
           rdf:resource="http://purl.org/dc/dcmitype/StillImage" /></cc:Work></rdf:RDF></metadata><defs
     id="defs4255" /><sodipodi:namedview
     pagecolor="#ffffff"
     bordercolor="#666666"
     borderopacity="1"
     objecttolerance="10"
     gridtolerance="10"
     guidetolerance="10"
     inkscape:pageopacity="0"
     inkscape:pageshadow="2"
     inkscape:window-width="1920"
     inkscape:window-height="1017"
     id="namedview4253"
     showgrid="false"
     inkscape:zoom="1.65625"
     inkscape:cx="320.57423"
     inkscape:cy="256"
     inkscape:window-x="-8"
     inkscape:window-y="-8"
     inkscape:window-maximized="1"
     inkscape:current-layer="Layer_1"><inkscape:grid
       type="xygrid"
       id="grid4259" /></sodipodi:namedview><g
     id="g4250"><g
       id="g4248"><g
         id="g4246"><path
           d="m 10.041124,461.15 c 5.517102,0 10.041125,-4.52402 10.041125,-10.04112 v -27.14414 c 0,-2.75855 1.213762,-5.29642 3.310261,-7.06189 23.723535,-19.53054 49.433228,-32.44056 54.288277,-34.86808 4.082655,-1.98616 6.620521,-6.06881 6.620521,-10.59284 v -38.17834 c 0,-3.31026 -1.65513,-6.51018 -4.413681,-8.27565 -2.20684,-1.43445 -3.530944,-3.86197 -3.530944,-6.51018 v -39.50245 c 0,-14.12378 11.47557,-25.59935 25.599347,-25.59935 h 8.49634 c 14.12378,0 25.59935,11.47557 25.59935,25.59935 v 39.50245 c 0,2.64821 -1.32411,5.07573 -3.53095,6.51018 -2.75855,1.87581 -4.41368,4.96539 -4.41368,8.27565 v 38.17834 c 0,4.52403 2.53787,8.60668 6.62052,10.59284 4.9654,2.42752 30.67509,15.33754 54.28828,34.86808 2.0965,1.76547 3.31026,4.30334 3.31026,7.06189 v 27.14414 c 0,5.5171 4.52403,10.04112 10.04113,10.04112 5.5171,0 10.04112,-4.52402 10.04112,-10.04112 v -27.14414 c 0,-8.82737 -3.86197,-16.99268 -10.59283,-22.50978 -21.07533,-17.32369 -43.47476,-29.79234 -53.62623,-35.08876 v -28.46824 c 5.07574,-5.18608 7.94463,-12.13763 7.94463,-19.53054 v -39.50245 c 0,-25.15798 -20.52362,-45.6816 -45.6816,-45.6816 h -8.49634 c -25.157979,0 -45.681596,20.52362 -45.681596,45.6816 v 39.50245 c 0,7.39291 2.868892,14.34446 7.944626,19.53054 V 366.3662 C 54.067593,371.66262 31.668162,384.13127 10.592835,401.45496 3.8619709,406.97206 0,415.24772 0,423.96474 v 27.14414 C 0,456.73632 4.5240231,461.15 10.041124,461.15 Z"
           data-original="#000000"
           class=""
           style="fill:#ffffff;stroke-width:1.10342026"
           data-old_color="#Ffffff"
           id="path4244"
           inkscape:connector-curvature="0" /></g></g><g
       id="g4339"
       transform="matrix(1.3802298,0,0,1.3802298,-113.90693,119.86272)"><g
         id="g4276"><g
           id="Layer_5_58_"><g
             id="g4273"><g
               id="g4265"><path
                 id="path4261"
                 d="m 265.10226,109.03566 c -14.47756,-5.80358 -18.66025,-9.313039 -18.66025,-15.650559 0,-5.071654 3.8413,-10.996778 14.67148,-10.996778 9.57934,0 16.926,3.777113 16.99154,3.809886 0.77291,0.412396 1.64003,0.63225 2.49896,0.63225 2.09612,0 3.95054,-1.268597 4.71934,-3.232258 l 2.63142,-6.726702 c 0.91628,-2.451164 -0.47385,-4.586885 -2.24633,-5.352958 -5.89781,-2.567235 -17.42443,-4.554111 -17.54186,-4.574595 -0.18572,-0.03277 -0.83162,-0.170694 -0.83162,-0.925843 l -0.0369,-9.758224 c 0,-2.938665 -2.4539,-5.331109 -5.4663,-5.331109 h -4.72071 c -3.00967,0 -5.4622,2.391079 -5.4622,5.332474 l 0.0123,10.259382 c 0,0.786557 -0.85211,1.127944 -1.16345,1.200319 -14.54994,3.465767 -23.64314,14.123889 -23.64314,27.567734 0,16.759381 13.85351,24.332721 28.81175,30.017501 11.95812,4.69476 16.83587,9.45507 16.83587,16.43713 0,7.59793 -6.90832,12.90446 -16.80583,12.90446 -8.45139,0 -19.88924,-5.35706 -20.00258,-5.41168 -0.73194,-0.34685 -1.50757,-0.52164 -2.30505,-0.52164 -2.17669,0 -4.07208,1.31639 -4.82996,3.35516 l -2.51261,6.80317 c -0.89307,2.53992 0.48204,4.6019 2.24224,5.51955 7.02439,3.65831 20.61708,5.80223 21.22202,5.89645 0.1625,0.0232 0.99002,0.31408 0.99002,1.07059 v 10.21432 c 0,2.93867 2.45389,5.33111 5.46766,5.33111 h 4.87775 c 3.01514,0 5.46903,-2.39108 5.46903,-5.33111 v -10.74961 c 0,-1.00505 0.74149,-1.09381 0.89444,-1.13068 15.50036,-3.48215 25.04829,-14.82305 25.04829,-29.06301 -0.004,-14.62641 -8.12639,-24.07738 -27.15534,-31.59473 z"
                 inkscape:connector-curvature="0"
                 style="fill:#ffffff;stroke-width:1.36555052" /></g><g
               id="g4271" /></g></g></g><g
         id="g4278" /><g
         id="g4280" /><g
         id="g4282" /><g
         id="g4284" /><g
         id="g4286" /><g
         id="g4288" /><g
         id="g4290" /><g
         id="g4292" /><g
         id="g4294" /><g
         id="g4296" /><g
         id="g4298" /><g
         id="g4300" /><g
         id="g4302" /><g
         id="g4304" /><g
         id="g4306" /></g></g><path
     d="m 287.13686,461.04665 c 5.51711,0 10.04113,-4.52403 10.04113,-10.04113 v -27.14414 c 0,-2.75855 1.21376,-5.29642 3.31026,-7.06188 23.72354,-19.53055 49.43323,-32.44058 54.28828,-34.8681 4.08266,-1.98616 6.62052,-6.06881 6.62052,-10.59283 v -38.17834 c 0,-3.31026 -1.65513,-6.51018 -4.41368,-8.27565 -2.20684,-1.43445 -3.53094,-3.86197 -3.53094,-6.51018 v -39.50245 c 0,-14.12378 11.47557,-25.59936 25.59934,-25.59936 h 8.49634 c 14.12378,0 25.59936,11.47558 25.59936,25.59936 v 39.50245 c 0,2.64821 -1.32412,5.07573 -3.53096,6.51018 -2.75855,1.87581 -4.41368,4.96539 -4.41368,8.27565 v 38.17834 c 0,4.52402 2.53787,8.60667 6.62052,10.59283 4.9654,2.42752 30.67509,15.33755 54.28828,34.8681 2.09651,1.76546 3.31027,4.30333 3.31027,7.06188 v 27.14414 c 0,5.5171 4.52402,10.04113 10.04112,10.04113 5.5171,0 10.04112,-4.52403 10.04112,-10.04113 v -27.14414 c 0,-8.82737 -3.86197,-16.99267 -10.59282,-22.50979 -21.07533,-17.32368 -43.47477,-29.79234 -53.62624,-35.08876 V 337.7946 c 5.07574,-5.18608 7.94463,-12.13763 7.94463,-19.53054 V 278.7616 c 0,-25.15797 -20.52362,-45.6816 -45.6816,-45.6816 h -8.49634 c -25.15797,0 -45.68159,20.52363 -45.68159,45.68161 v 39.50245 c 0,7.39291 2.86889,14.34446 7.94462,19.53054 v 28.46823 c -10.15146,5.29642 -32.5509,17.76508 -53.62622,35.08876 -6.73087,5.51712 -10.59284,13.79277 -10.59284,22.50979 v 27.14414 c 0,5.62745 4.52402,10.04113 10.04112,10.04113 z"
     data-original="#000000"
     class=""
     style="fill:#ffffff;stroke-width:1.10342026"
     data-old_color="#Ffffff"
     id="path4244-8"
     inkscape:connector-curvature="0" /><path
     d="m 147.06276,230.01998 c 5.5171,0 10.04112,-4.52403 10.04112,-10.04113 v -27.14414 c 0,-2.75855 1.21376,-5.29642 3.31026,-7.06188 23.72353,-19.53055 49.43322,-32.44057 54.28827,-34.86809 4.08266,-1.98616 6.62052,-6.06881 6.62052,-10.59284 v -38.17833 c 0,-3.310255 -1.65513,-6.510174 -4.41368,-8.275644 -2.20684,-1.43445 -3.53094,-3.861971 -3.53094,-6.510181 v -39.50245 c 0,-14.123782 11.47557,-25.599355 25.59934,-25.599355 h 8.49634 c 14.12378,0 25.59936,11.475573 25.59936,25.599355 v 39.50245 c 0,2.64821 -1.32412,5.075731 -3.53096,6.510181 -2.75855,1.87581 -4.41368,4.965389 -4.41368,8.275644 v 38.17833 c 0,4.52403 2.53787,8.60668 6.62052,10.59284 4.9654,2.42752 30.67509,15.33754 54.28828,34.86809 2.09651,1.76546 3.31027,4.30333 3.31027,7.06188 v 27.14414 c 0,5.5171 4.52402,10.04113 10.04112,10.04113 5.5171,0 10.04112,-4.52403 10.04112,-10.04113 v -27.14414 c 0,-8.82737 -3.86197,-16.99267 -10.59282,-22.50978 -21.07533,-17.32369 -43.47477,-29.79234 -53.62624,-35.08876 v -28.46823 c 5.07574,-5.18607 7.94463,-12.137624 7.94463,-19.530535 V 47.734954 c 0,-25.157984 -20.52362,-45.6816028 -45.6816,-45.6816028 h -8.49634 c -25.15797,0 -45.68159,20.5236188 -45.68159,45.6816028 v 39.502451 c 0,7.392911 2.86889,14.344465 7.94462,19.530535 v 28.46823 c -10.15146,5.29642 -32.55089,17.76507 -53.62621,35.08876 -6.73086,5.51711 -10.59283,13.79276 -10.59283,22.50978 v 27.14414 c 0,5.62745 4.52402,10.04113 10.04112,10.04113 z"
     data-original="#000000"
     class=""
     style="fill:#ffffff;stroke-width:1.10342026"
     data-old_color="#Ffffff"
     id="path4244-0"
     inkscape:connector-curvature="0" /></svg>